<svg width="25" height="25" viewBox="0 0 25 25" fill="none" xmlns="http://www.w3.org/2000/svg">
<path d="M13.9457 7.67758L16.5293 6.40674C16.8444 6.24919 16.9285 5.83958 16.6869 5.58752C15.7521 4.55824 14.8069 3.69701 14.0507 3.04584C13.7041 2.75176 13.1895 2.99332 13.1895 3.44494V7.20495C13.1895 7.59355 13.5991 7.84562 13.9457 7.67758Z" fill="white"/>
<path d="M13.1895 20.6241V22.3571C13.1895 22.6721 13.473 22.9347 13.7881 22.8822C16.6554 22.4096 19.05 20.4876 20.1843 17.9039C20.3839 17.4627 19.9007 17.0216 19.4596 17.2317L13.4835 20.162C13.305 20.246 13.1895 20.4245 13.1895 20.6241Z" fill="white"/>
<path d="M11.6147 3.42414C11.6147 2.97252 11.1001 2.73096 10.7535 3.01453C8.27477 5.09409 3.87409 9.47375 3.89509 14.4941C3.89509 18.7162 6.98292 22.2137 11.016 22.8859C11.3311 22.9384 11.6147 22.6758 11.6147 22.3607V3.42414Z" fill="white"/>
<path d="M13.9149 12.9925L19.4709 10.6609C19.7544 10.5349 19.891 10.2093 19.7544 9.93622C19.3658 9.16952 18.9142 8.42382 18.4206 7.73063C18.2735 7.52058 18.0005 7.45756 17.7694 7.56259L13.4738 9.65265C13.2952 9.73667 13.1797 9.92572 13.1797 10.1253V12.5094C13.1902 12.877 13.5683 13.1396 13.9149 12.9925Z" fill="white"/>
<path d="M20.6254 14.9235C20.7935 14.8394 20.8985 14.6819 20.8985 14.5034C20.8985 13.8312 20.8145 13.1695 20.6675 12.5183C20.5939 12.2032 20.2473 12.0352 19.9533 12.1612L13.5045 14.913C13.3155 14.997 13.1895 15.186 13.1895 15.3961V17.7067C13.1895 18.0953 13.5991 18.3474 13.9457 18.1793L20.1423 15.165L20.6254 14.9235Z" fill="white"/>
</svg>
