<svg width="24" height="25" viewBox="0 0 24 25" fill="none" xmlns="http://www.w3.org/2000/svg">
<path fill-rule="evenodd" clip-rule="evenodd" d="M13.1963 6.1377C14.6731 6.1377 15.8704 7.35292 15.8704 8.85198V16.0901C15.8704 17.5891 14.6731 18.8044 13.1963 18.8044H5.17407C3.69722 18.8044 2.5 17.5891 2.5 16.0901V8.85198C2.5 7.35292 3.69722 6.1377 5.17407 6.1377H13.1963ZM21.4055 8.9689C21.4675 9.07502 21.5 9.19442 21.5 9.31581V15.6278C21.5 16.0223 21.1639 16.3421 20.7494 16.3421C20.6218 16.3421 20.4964 16.3111 20.3849 16.2522L17.7604 14.8646C17.4625 14.7071 17.2778 14.4084 17.2778 14.0841V10.8595C17.2778 10.5352 17.4625 10.2364 17.7604 10.0789L20.3849 8.69137C20.7472 8.49978 21.2042 8.62403 21.4055 8.9689Z" fill="white"/>
</svg>
