<svg width="24" height="25" viewBox="0 0 24 25" fill="none" xmlns="http://www.w3.org/2000/svg">
<path fill-rule="evenodd" clip-rule="evenodd" d="M13.4999 6.19922H8.2299C8.0199 6.19922 7.9099 6.44922 8.0499 6.60922L15.7499 15.0892C15.8999 15.2592 16.1699 15.1492 16.1699 14.9292V8.90922C16.1699 7.41922 14.9799 6.19922 13.4999 6.19922ZM21.7099 9.02922C21.5099 8.68922 21.0499 8.55922 20.6899 8.74922L18.0599 10.1392C17.7699 10.2992 17.5799 10.5992 17.5799 10.9192V14.1492C17.5799 14.4692 17.7699 14.7692 18.0599 14.9292L20.6899 16.3092C20.7999 16.3692 20.9199 16.3992 21.0499 16.3992C21.4699 16.3992 21.7999 16.0792 21.7999 15.6892V9.37922C21.7999 9.25922 21.7699 9.13922 21.7099 9.02922Z" fill="white"/>
<path d="M17.6698 20.439C17.3698 20.699 16.9098 20.679 16.6398 20.389L14.8998 18.469C14.4898 18.719 14.0098 18.869 13.4998 18.869H5.47975C3.99975 18.869 2.79975 17.649 2.79975 16.149V8.90898C2.79975 7.91898 3.32975 7.04898 4.11975 6.57898L2.38975 4.66898C2.11975 4.36898 2.13975 3.90898 2.43975 3.64898C2.57975 3.51898 2.74975 3.45898 2.91975 3.45898C3.11975 3.45898 3.31975 3.53898 3.45975 3.69898L5.72975 6.19898L15.8798 17.379L17.7198 19.409C17.9798 19.709 17.9598 20.169 17.6698 20.439Z" fill="white"/>
</svg>
