<svg width="33" height="24" viewBox="0 0 33 24" fill="none" xmlns="http://www.w3.org/2000/svg">
<path fill-rule="evenodd" clip-rule="evenodd" d="M16.5859 11.3487H16.414C13.5 11.3827 11.5878 11.7909 10.6773 12.5734L10.658 12.9743C10.6212 13.5376 10.5487 13.9302 10.4406 14.1519C10.2155 14.6135 9.90792 14.8295 8.64481 15.1008C6.98314 15.4578 5.56048 15.5056 4.79962 15.5056C4.0931 15.5056 3.59429 14.9875 3.4484 14.7032L3.37998 14.5353L3.31195 14.3351C3.13139 13.745 2.91074 12.4577 4.07032 11.3464C4.57109 10.8664 5.3825 10.3899 6.50536 9.95483C8.99386 9.08296 12.0076 8.60114 15.5467 8.50936L16.1824 8.4976L16.1824 8.49316L16.4998 8.49517L16.8175 8.49316L16.8175 8.4976L17.4533 8.50936C20.9923 8.60114 24.0061 9.08296 26.4946 9.95483C27.6174 10.3899 28.4288 10.8664 28.9296 11.3464C30.1838 12.5484 29.8233 13.9563 29.6453 14.4651L29.5789 14.6421C29.4811 14.9047 28.9612 15.5056 28.2003 15.5056L27.8349 15.502C27.0281 15.4857 25.7794 15.4068 24.3551 15.1008C23.092 14.8295 22.7844 14.6135 22.5593 14.1519C22.4272 13.8809 22.3483 13.3547 22.3227 12.5734C21.4121 11.7909 19.4999 11.3827 16.5859 11.3487Z" fill="white"/>
</svg>
