<svg width="24" height="24" viewBox="0 0 24 24" fill="none" xmlns="http://www.w3.org/2000/svg">
<path d="M7.71417 12V6.28571C7.71417 5.72291 7.82502 5.16561 8.0404 4.64564C8.25577 4.12568 8.57146 3.65322 8.96942 3.25526C9.36739 2.85729 9.83984 2.54161 10.3598 2.32623C10.8798 2.11085 11.4371 2 11.9999 2C12.5627 2 13.12 2.11085 13.64 2.32623C14.1599 2.54161 14.6324 2.85729 15.0303 3.25526C15.4283 3.65322 15.744 4.12568 15.9594 4.64564C16.1747 5.16561 16.2856 5.72291 16.2856 6.28571V12.0007C16.2855 13.1373 15.8339 14.2274 15.0301 15.0311C14.2263 15.8347 13.1362 16.2862 11.9995 16.2861C10.8629 16.286 9.77284 15.8344 8.96918 15.0306C8.16551 14.2268 7.71407 13.1366 7.71417 12ZM18.4675 12.0049C18.2795 11.986 18.0917 12.0416 17.9443 12.1598C17.7969 12.278 17.7017 12.4493 17.6793 12.6369C17.5225 14.0335 16.8566 15.3233 15.8088 16.26C14.7611 17.1966 13.4049 17.7144 11.9996 17.7143C10.5942 17.7142 9.23811 17.1963 8.19047 16.2595C7.14284 15.3227 6.4771 14.0328 6.32047 12.6362C6.29742 12.4489 6.20208 12.2781 6.05482 12.1601C5.90755 12.0422 5.72002 11.9865 5.53225 12.0049C5.34387 12.0258 5.17151 12.1207 5.05302 12.2686C4.93452 12.4165 4.87958 12.6054 4.90027 12.7938C5.0821 14.4147 5.81591 15.9237 6.97857 17.0677C8.14122 18.2116 9.66196 18.9208 11.2856 19.0763V21.2857C11.2856 21.4752 11.3609 21.6568 11.4948 21.7908C11.6288 21.9247 11.8104 22 11.9999 22C12.1893 22 12.371 21.9247 12.505 21.7908C12.6389 21.6568 12.7142 21.4752 12.7142 21.2857V19.0764C14.3381 18.9213 15.8591 18.2121 17.0218 17.0679C18.1846 15.9237 18.9182 14.4143 19.0995 12.7931C19.1202 12.6048 19.0652 12.416 18.9467 12.2682C18.8282 12.1203 18.6558 12.0257 18.4675 12.0049Z" fill="white"/>
</svg>
