<svg width="24" height="24" viewBox="0 0 24 24" fill="none" xmlns="http://www.w3.org/2000/svg">
<path d="M19.6234 20.3857C19.4832 20.5131 19.2981 20.5796 19.1089 20.5706C18.9197 20.5616 18.7418 20.4778 18.6143 20.3377L16.2518 17.7389C15.218 18.5063 13.9954 18.9788 12.7143 19.1063V21.2857C12.7143 21.4752 12.6391 21.6568 12.5051 21.7908C12.3711 21.9247 12.1895 22 12 22C11.8106 22 11.6289 21.9247 11.4949 21.7908C11.361 21.6568 11.2857 21.4752 11.2857 21.2857V19.1069C9.65878 18.9462 8.13649 18.2312 6.97403 17.0816C5.81157 15.932 5.07958 14.4178 4.90076 12.7928C4.88004 12.6045 4.93492 12.4158 5.05334 12.268C5.17176 12.1202 5.34402 12.0255 5.53225 12.0047C5.72047 11.9839 5.90926 12.0387 6.0571 12.157C6.20494 12.2754 6.29972 12.4476 6.32061 12.6358C6.4309 13.6218 6.79604 14.5621 7.38009 15.3641C7.96415 16.1662 8.74698 16.8023 9.65155 17.2099C10.5561 17.6175 11.5512 17.7825 12.5389 17.6887C13.5266 17.5949 14.4729 17.2455 15.2846 16.6749L14.3136 15.6069C13.6662 16.0224 12.9188 16.256 12.15 16.2831C11.3812 16.3101 10.6192 16.1297 9.94416 15.7608C9.2691 15.3918 8.70582 14.8479 8.31347 14.1862C7.92111 13.5245 7.71415 12.7693 7.71431 12V8.34766L4.3286 4.62338C4.20116 4.4832 4.13462 4.29813 4.14363 4.10889C4.15264 3.91965 4.23646 3.74174 4.37664 3.61429C4.51683 3.48685 4.70189 3.42032 4.89113 3.42933C5.08037 3.43834 5.25828 3.52215 5.38573 3.66234L19.6714 19.3766C19.7989 19.5168 19.8654 19.7019 19.8564 19.8911C19.8473 20.0803 19.7636 20.2582 19.6234 20.3857ZM15.0429 12.1617C15.1399 12.2683 15.2669 12.3432 15.4072 12.3763C15.5475 12.4095 15.6945 12.3994 15.829 12.3474C15.9635 12.2954 16.0791 12.2039 16.1606 12.085C16.2421 11.9661 16.2857 11.8253 16.2857 11.6811V6.28572C16.2856 5.35315 15.9814 4.44605 15.4192 3.70203C14.8569 2.95801 14.0674 2.41767 13.1703 2.16296C12.2731 1.90826 11.3174 1.95309 10.4481 2.29067C9.57879 2.62824 8.84329 3.24013 8.35317 4.03352C8.27155 4.16546 8.23511 4.32039 8.24934 4.47488C8.26358 4.62938 8.32772 4.77503 8.43208 4.88984L15.0429 12.1617ZM17.729 15.0058C17.8164 15.0401 17.9096 15.0568 18.0034 15.0549C18.0972 15.0531 18.1898 15.0328 18.2757 14.9952C18.3617 14.9576 18.4394 14.9034 18.5043 14.8357C18.5693 14.768 18.6203 14.6882 18.6544 14.6008C18.8813 14.0202 19.0309 13.4123 19.0993 12.7928C19.1201 12.6045 19.0653 12.4156 18.9468 12.2678C18.8284 12.1199 18.6561 12.0252 18.4678 12.0044C18.2795 11.9835 18.0907 12.0384 17.9428 12.1568C17.795 12.2752 17.7002 12.4475 17.6794 12.6358C17.6247 13.1308 17.5053 13.6165 17.324 14.0804C17.255 14.2568 17.2589 14.4535 17.3349 14.627C17.4108 14.8005 17.5526 14.9368 17.729 15.0058Z" fill="white"/>
</svg>
