<svg width="24" height="25" viewBox="0 0 24 25" fill="none" xmlns="http://www.w3.org/2000/svg">
<path fill-rule="evenodd" clip-rule="evenodd" d="M13.698 3.15137C14.2137 3.15137 14.7104 3.33433 15.0893 3.66382L16.4107 5.0906C16.7422 5.37891 17.164 5.55503 17.6097 5.59455L17.802 5.60306H18.4103C20.3928 5.60306 22 6.83929 22 8.70692V17.5475C22 19.4151 20.3928 20.9291 18.4103 20.9291H5.58974C3.60718 20.9291 2 19.4151 2 17.5475V8.70692C2 6.83929 3.60718 5.60306 5.58974 5.60306H6.19798C6.71365 5.60306 7.21041 5.42009 7.58933 5.0906L8.91067 3.66382C9.28959 3.33433 9.78635 3.15137 10.302 3.15137H13.698ZM7.94054 9.32853C7.79652 9.228 7.60424 9.24515 7.48058 9.36005L7.43213 9.41521L5.40011 12.2618C5.35666 12.3226 5.33333 12.3953 5.33333 12.4698C5.33333 12.6441 5.45838 12.7896 5.62462 12.8232L5.69814 12.8305H6.90934L6.91305 13.03C7.01914 15.8762 9.38601 18.1514 12.2903 18.1514C12.7436 18.1514 13.1111 17.788 13.1111 17.3397C13.1111 16.8914 12.7436 16.5281 12.2903 16.5281C10.2877 16.5281 8.65281 14.9714 8.55556 13.0151L8.55099 12.8305H9.76218C9.83752 12.8305 9.91101 12.8075 9.97256 12.7645C10.1166 12.664 10.1646 12.4791 10.0966 12.3254L10.0602 12.2618L8.0282 9.41521C8.0042 9.38159 7.97455 9.35227 7.94054 9.32853ZM11.7097 7.59581C11.2564 7.59581 10.8889 7.9592 10.8889 8.40747C10.8889 8.85573 11.2564 9.21912 11.7097 9.21912C13.7123 9.21912 15.3472 10.7758 15.4444 12.7321L15.449 12.9167H14.2378C14.1625 12.9167 14.089 12.9397 14.0274 12.9827C13.8834 13.0832 13.8354 13.2681 13.9034 13.4218L13.9398 13.4854L15.9718 16.332C15.9958 16.3656 16.0254 16.3949 16.0595 16.4186C16.2035 16.5192 16.3958 16.502 16.5194 16.3871L16.5679 16.332L18.5999 13.4854C18.6433 13.4246 18.6667 13.3519 18.6667 13.2774C18.6667 13.1031 18.5416 12.9576 18.3754 12.924L18.3019 12.9167H17.0907L17.0869 12.7172C16.9809 9.87098 14.614 7.59581 11.7097 7.59581Z" fill="white"/>
</svg>
